inDegrees=no
num_controls=7
num_derivatives=13
num_iterations=89
num_multipliers=7
num_parameters=0
num_slacks=7
num_states=26
objective=0.454461
objective_accelerations=0.046908
objective_balance=0.000916
objective_effort=0.037215
objective_height=0.363785
objective_ligament=0.005638
solver_duration=949.312648
status=Solve_Succeeded
success=true
DataType=double
version=3
OpenSimVersion=4.5
endheader
time	/jointset/ground_pelvis/pelvis_tilt/value	/jointset/ground_pelvis/pelvis_tx/value	/jointset/ground_pelvis/pelvis_ty/value	/jointset/hip_r/hip_flexion_r/value	/jointset/hip_r/hip_adduction_r/value	/jointset/hip_r/hip_rotation_r/value	/jointset/back/lumbar_extension/value	/jointset/patellofemoral_r/patellar_flexion_r/value	/jointset/knee_r/knee_flexion_r/value	/jointset/knee_r/knee_adduction_r/value	/jointset/knee_r/knee_rotation_r/value	/jointset/ankle_r/ankle_angle_r/value	/jointset/subtalar_r/subtalar_angle_r/value	/jointset/ground_pelvis/pelvis_tilt/speed	/jointset/ground_pelvis/pelvis_tx/speed	/jointset/ground_pelvis/pelvis_ty/speed	/jointset/hip_r/hip_flexion_r/speed	/jointset/hip_r/hip_adduction_r/speed	/jointset/hip_r/hip_rotation_r/speed	/jointset/back/lumbar_extension/speed	/jointset/patellofemoral_r/patellar_flexion_r/speed	/jointset/knee_r/knee_flexion_r/speed	/jointset/knee_r/knee_adduction_r/speed	/jointset/knee_r/knee_rotation_r/speed	/jointset/ankle_r/ankle_angle_r/speed	/jointset/subtalar_r/subtalar_angle_r/speed	/forceset/tau_hip_flexion_r	/forceset/tau_hip_adduction_r	/forceset/tau_hip_rotation_r	/forceset/tau_knee_flexion_r	/forceset/tau_ankle_angle_r	/forceset/tau_subtalar_angle_r	/forceset/tau_lumbar_extension	lambda_cid13_p0	lambda_cid14_p0	lambda_cid14_p1	lambda_cid14_p2	lambda_cid14_p3	lambda_cid14_p4	lambda_cid14_p5	/jointset/ground_pelvis/pelvis_tilt/accel	/jointset/ground_pelvis/pelvis_tx/accel	/jointset/ground_pelvis/pelvis_ty/accel	/jointset/hip_r/hip_flexion_r/accel	/jointset/hip_r/hip_adduction_r/accel	/jointset/hip_r/hip_rotation_r/accel	/jointset/back/lumbar_extension/accel	/jointset/patellofemoral_r/patellar_flexion_r/accel	/jointset/knee_r/knee_flexion_r/accel	/jointset/knee_r/knee_adduction_r/accel	/jointset/knee_r/knee_rotation_r/accel	/jointset/ankle_r/ankle_angle_r/accel	/jointset/subtalar_r/subtalar_angle_r/accel	gamma_cid13_p0	gamma_cid14_p0	gamma_cid14_p1	gamma_cid14_p2	gamma_cid14_p3	gamma_cid14_p4	gamma_cid14_p5
1.5	-0.06403073675937815	0.03418213418170186	0.8211838985457931	0.7823076182134735	-0.2203986910445012	-0.1376343026820677	-0.6225402351521753	0.9292898834216134	0.9292898834216181	-0.05744171572355385	0.1744892386116622	0.3047069859915627	0.1468976509578874	0.4210825845367587	0.2187928759523974	0.4930812547290737	-1.938243832014828	0.02737402988040774	-0.1885122575390933	0.8001985290477395	-1.936579512883881	-1.936579512883847	0.4367454540097954	0.0002121703192104836	-0.5247182379818808	-0.1718738055379249	-0.1470017495900578	0.007624238828336058	0.01909055246377431	-0.3132125223240028	0.02184778489785823	-0.005141333603093393	0.205100421358246	-9.874109377643352	-35.55289162699417	-8.239741435325213	1.486344185504429	-2.824470603647097	-631.186390728355	60.50155629051694	0.1119930930099696	0.5420249020728332	-0.4979825896336527	-0.9460002287027158	-0.1986850848007047	-0.5434159778340331	1.744946302794727	-1.322512990318993	-1.322512990318962	0.4727105151410286	-0.02899640572004182	-0.6520031304370429	-0.3990176195671373	1.500425818053286e-07	1.508101406649609e-07	-6.178458402019107e-07	1.577955029716561e-06	-1.506765951667862e-08	2.573204842145636e-07	-5.006871095332629e-07
1.51	-0.05981463691911486	0.03639694441579609	0.826088819415155	0.7628798744907961	-0.2201355914948306	-0.1395465248413141	-0.614452261443185	0.909860444859336	0.9098604448593394	-0.05304966075430093	0.174490792656685	0.2994278308559344	0.1451582842608065	0.4220773405809972	0.2241441747152488	0.487799924067121	-1.94705615784141	0.02524089489192192	-0.1939943365946606	0.817298674862396	-1.949048352007584	-1.949048352007536	0.4415806021693779	0.0001251154890968997	-0.5310242876219206	-0.1759535305817999	-0.1403699652421532	0.006050367529894557	0.01884139754490903	-0.3089662445141742	0.02310624149743318	-0.005658045495038682	0.1988840486347048	-10.89148931024493	-34.86771015826319	-8.160289795194339	1.263631587103792	-2.894673508322986	-626.6086519581371	60.35936331392438	0.0842213757759256	0.5279322877774345	-0.5586111761276101	-0.8115207107857755	-0.2212388330182037	-0.5597308728638355	1.677918037765701	-1.170114250302557	-1.170114250300484	0.4761141234036071	0.005623163293811832	-0.6066079391650003	-0.4054944858479149	1.236527988637546e-07	1.224397520783519e-07	-5.654679838740872e-07	1.313292512413429e-06	-7.276521251737045e-09	2.405752843315323e-07	-4.91183787580539e-07
1.52	-0.05559038861527991	0.03866451762239663	0.830937846403566	0.7433714731196209	-0.2198939455204729	-0.1415153931918094	-0.6061962124126559	0.8903141089304406	0.890314108930445	-0.04861181487204835	0.174492312790393	0.2940882748122307	0.1433795114054764	0.4227122772510323	0.2293454704536568	0.4819024785390288	-1.954375361713975	0.02308331481761998	-0.1998414957880627	0.8338135933556158	-1.959958986207555	-1.959958986207494	0.4459036366104336	0.0002053880570184746	-0.5367984195970683	-0.1797550371876893	-0.1337381808942684	0.004476496231427768	0.01859224262612863	-0.3047199667043418	0.02436469809699865	-0.006174757387027704	0.1926676759111485	-11.91057798616438	-34.18388478250861	-8.079720269473375	1.039192697012197	-2.97739656990426	-622.0465085029192	60.27098566329678	0.04002921816936669	0.5120242971840389	-0.6212055628615543	-0.6473758378990991	-0.2035741019638743	-0.6164320054009198	1.627900838507416	-1.010872005572486	-1.010872005572479	0.3702877714355676	0.004469073886875082	-0.5456195974587525	-0.3433739319699685	1.128088532822803e-07	1.011506741736579e-07	-6.332302268656521e-07	1.11373984198529e-06	9.872107599997583e-09	2.313877434859862e-07	-5.423524045700966e-07
1.53	-0.05136169984673826	0.04098325930233575	0.8357248798130851	0.7237975005595342	-0.2196740217099438	-0.1435443591095657	-0.5977782358398495	0.8706664900361273	0.8706664900361345	-0.04413299885141404	0.1744954733730734	0.2886935669797241	0.1415640299548216	0.4229552337679691	0.2343677868681066	0.4754072000709312	-1.96015213841714	0.02089112469471327	-0.2059307235827826	0.8496523817707827	-1.969291622271952	-1.969291622271904	0.4498507622634033	0.000415118793795438	-0.5420615075074363	-0.1833106645821152	-0.1268154196391878	0.002633022570331915	0.01841337934132883	-0.3009126734349208	0.02595016070663005	-0.006758361926451798	0.1861929424314157	-12.92852507119273	-33.41542853305326	-8.023158650358077	0.8297465516284739	-3.035048442497017	-617.6463425149441	60.23501889747348	0.005899716113082683	0.4920838065758286	-0.6781935607711648	-0.5027665770372335	-0.2285229591513699	-0.6018292134981463	1.542466927940479	-0.8535081533560734	-0.853508153357986	0.405487282164301	0.02763542355688581	-0.5043726463649387	-0.3571072565997448	1.184823598959119e-07	8.738548886849846e-08	-8.286413253840656e-07	9.833663838618309e-07	3.696307020019972e-08	2.302302153677682e-07	-6.579849566858274e-07
1.54	-0.04713268734349622	0.04335117384502002	0.8404440595235247	0.7041737726343109	-0.2194763160989845	-0.1456335495146694	-0.5892057515659083	0.8509337350318817	0.8509337350318765	-0.03961499911026559	0.174500413333111	0.2832486844164063	0.1397139022075378	0.4227770241911868	0.2391800430026874	0.4683317387232663	-1.964326434740776	0.01863967490392683	-0.2118863932571311	0.8647151335826948	-1.976986208195665	-1.97698620819563	0.4537403807138423	0.0005612635299282084	-0.546833365759375	-0.1866842965133806	-0.119892658384127	0.000789548909209452	0.01823451605649067	-0.2971053801655085	0.02753562331625137	-0.007341966465919837	0.1797182089516687	-13.94128656140309	-32.64886391764234	-7.966373425670068	0.6196306048298035	-3.100072584706485	-613.2666726602891	60.24753438476105	-0.04420400057438928	0.4700122412101386	-0.7372421387750039	-0.3268797619933986	-0.2154260355397599	-0.5897203813265787	1.47269351785648	-0.6832619774358153	-0.6832619774358144	0.3587863309293605	-0.00824812624207449	-0.4473736657730282	-0.3069748393378336	1.212534394293842e-07	7.483426580307563e-08	-9.858637019922568e-07	8.522253202044443e-07	5.89014148248961e-08	2.305260842778905e-07	-7.448505458237302e-07
1.55	-0.04290745016321004	0.04576612339903327	0.8450896330029379	0.6845163067649943	-0.2193013059329057	-0.1477819942818373	-0.5804866195508342	0.8311324334462671	0.8311324334462484	-0.03505892002366588	0.1745065797196218	0.2777587384475431	0.1378312012954403	0.4222088415932931	0.2437706207635061	0.4606904196568462	-1.966893659550573	0.01635572238649447	-0.2177678603924715	0.8789736462850569	-1.982969137352198	-1.982969137352215	0.4574599311560252	0.0006502722013141393	-0.5510546170721593	-0.1898150220346466	-0.1131059847636883	-0.001019679895402473	0.01804588175629494	-0.2932469467989206	0.02899071991426194	-0.008027363060803009	0.1733520287080395	-14.94517396457526	-31.94588245774633	-7.972764691399677	0.4285368927296567	-3.123030768518547	-609.0766747148712	60.16091976745211	-0.07235708902510721	0.447710246274257	-0.791410697724143	-0.180675565315205	-0.2358687460096198	-0.5819794946772613	1.381786674515698	-0.5100867206749121	-0.5100867206825114	0.3760620482213912	0.01431144048638743	-0.3942774544224117	-0.3100979204528256	1.206804181965863e-07	6.368173836169699e-08	-1.09908602944302e-06	7.201998414753586e-07	7.490304743433619e-08	2.324965193293611e-07	-7.985715906610939e-07
1.56	-0.03868974114882892	0.04822580467120662	0.8496560265102564	0.6648413623026079	-0.2191493330692368	-0.1499881776433696	-0.571629031103119	0.811280446901895	0.8112804469018837	-0.03046614090319177	0.1745130034081848	0.2722296246474749	0.1359183978257431	0.4212713910102621	0.248126386634707	0.45249574430442	-1.967822153354054	0.01403221442249638	-0.223434112129401	0.8924064201109829	-1.987123199945249	-1.987123199945316	0.4610803874925636	0.0006127239390023571	-0.5546669320006009	-0.1927048080331939	-0.1063193111432761	-0.002828908700061959	0.01785724745627542	-0.2893885134323201	0.03044581651225687	-0.008712759655766919	0.166985848464392	-15.9374871746193	-31.24464977923789	-7.979622405907305	0.2377001412041885	-3.152003703713678	-604.9063094838942	60.11524976219615	-0.1180575976017736	0.4230498632864468	-0.8479133959762065	0.0008664392698757551	-0.2233371248528786	-0.5466773016443344	1.307545742569306	-0.3174886647392525	-0.3174886647392539	0.3389675098004084	-0.03355951298172326	-0.3255863889045836	-0.2587869347940625	1.208525007196813e-07	5.170651409266787e-08	-1.235658363733851e-06	5.711299931669927e-07	9.332333111823564e-08	2.353610483584942e-07	-8.571125693765276e-07
1.57	-0.03448328471316452	0.05072776318410661	0.854137788817163	0.645165477929575	-0.2190205079856372	-0.1522510615166418	-0.5626415939120768	0.7913959968449388	0.791395996844929	-0.02583893432270185	0.1745188677286471	0.2666674635489076	0.1339783426347929	0.419952108530761	0.2522149117111875	0.4437711316561693	-1.967056676794179	0.01174588112857383	-0.2291498955541486	0.9049110895869487	-1.989451667968505	-1.989451667968559	0.464276909231066	0.0005529867377289284	-0.557659677295134	-0.1952374329141921	-0.09935403098529492	-0.004777643265376273	0.01766433258154548	-0.2858727593657219	0.03207937703228053	-0.009457527487876937	0.1604639198945231	-16.91610825618135	-30.51082386172467	-8.014339284857828	0.06019301514286674	-3.13242891145908	-600.9830617708005	60.10417671085492	-0.1490320092460915	0.3942186170481147	-0.8975246851755488	0.1590965388722437	-0.229395269428375	-0.5849617782488039	1.196438273675321	-0.1432788676380211	-0.1432788676359266	0.2971851820727672	0.006773841475797539	-0.2702239721306753	-0.2403804858223734	1.219559629376424e-07	3.870291878907562e-08	-1.401418206574764e-06	4.007546828845273e-07	1.147669286452093e-07	2.393431948597053e-07	-9.216784654395487e-07
1.58	-0.03029205478951914	0.05326909990521582	0.8585297471004014	0.6255061899770438	-0.2189141690025369	-0.1545712898072303	-0.5535342078815617	0.7714977115084437	0.7714977115084398	-0.02118232438960118	0.174523925610151	0.2610785539229146	0.1320149851508181	0.4182260886063741	0.2560020282765532	0.4345349395708442	-1.964502869253255	0.009534994324005053	-0.2349029955932573	0.9163961880054974	-1.989890255852532	-1.989890255852572	0.4669610580174803	0.0004514361434991078	-0.5600166374857914	-0.1973652666379837	-0.09238875082733253	-0.006726377830710682	0.01747141770688295	-0.2823570052991218	0.03371293755229657	-0.01020229532002067	0.1539419913246402	-17.87950182703473	-29.77788109469434	-8.050424870427101	-0.1157091937418361	-3.118231139936768	-597.0665426892557	60.1227135285156	-0.1994050865788122	0.3627681610633562	-0.9502292833910853	0.3585326354796824	-0.208247826982095	-0.5541406245165325	1.103631531086001	0.06048736310671119	0.06048736310671107	0.2364929193827425	-0.04192219157307232	-0.1984293681295407	-0.1778287033526972	1.274418174683591e-07	2.752042308839783e-08	-1.59678215422554e-06	2.358597743534167e-07	1.387288365511392e-07	2.411705123781864e-07	-9.895895313651341e-07
1.59	-0.02612016339480687	0.05584668189148756	0.8628268906126746	0.6058814987596502	-0.2188295850496664	-0.1569492522527783	-0.5443175487481892	0.7516044844774331	0.751604484477444	-0.01650130266255458	0.1745279674645617	0.255469140950736	0.1300322587591055	0.4160754096830393	0.2594515009893064	0.4248168776175273	-1.960113604073309	0.007383604303766033	-0.2406174215519315	0.9267222398153491	-1.988423153119603	-1.988423153119633	0.4692288484201384	0.0003177756221230279	-0.5617697951362415	-0.1991371391239725	-0.08509926031422456	-0.008877190292310365	0.01728996151429396	-0.2794740462428285	0.03581257102077774	-0.01105758114005292	0.1471662127609911	-18.8267566214042	-28.93093514121314	-8.130704256824346	-0.2661103116210922	-3.089617840696738	-593.4954157643864	60.17317510571732	-0.2344192267004602	0.3266431129271536	-0.9940795573289205	0.5273870879005563	-0.2184867170984194	-0.5691404155493051	0.9650821780356743	0.23959217518196	0.2395921751835544	0.219468445409238	-0.004997997017176903	-0.149263656597316	-0.1707484038506791	1.388752044235296e-07	1.880941970596096e-08	-1.832323101261128e-06	7.840255391343023e-08	1.661084513999381e-07	2.400734191343911e-07	-1.062040470675628e-06
